<svg width="512" height="512" viewBox="0 0 512 512" fill="none" xmlns="http://www.w3.org/2000/svg">
  <defs>
    <clipPath id="appIconClip">
      <rect width="400" height="400" x="56" y="56" rx="60"/>
    </clipPath>
  </defs>
  <g clip-path="url(#appIconClip)">
    <rect width="512" height="512" fill="#ffffff"/>
    <rect width="360" height="100" x="76" y="90" rx="24" fill="#94a3b8"/>
    <g transform="translate(232, 120) scale(2)">
      <path d="M12 22c1.1 0 2-.9 2-2h-4c0 1.1.9 2 2 2zm6-6v-5c0-3.07-1.63-5.64-4.5-6.32V4c0-.83-.67-1.5-1.5-1.5s-1.5.67-1.5 1.5v.68C7.64 5.36 6 7.92 6 11v5l-2 2v1h16v-1l-2-2z" fill="white"/>
    </g>
    <rect width="360" height="100" x="76" y="205" rx="24" fill="#4f46e5"/>
    <g>
      <circle cx="151" cy="255" r="9" fill="white"/>
      <circle cx="186" cy="255" r="9" fill="white"/>
      <circle cx="221" cy="255" r="9" fill="white"/>
      <circle cx="256" cy="255" r="9" fill="white"/>
      <circle cx="291" cy="255" r="9" fill="white"/>
      <circle cx="326" cy="255" r="9" fill="white"/>
      <circle cx="361" cy="255" r="9" fill="white"/>
    </g>
    <rect width="400" height="150" x="56" y="335" fill="#0f172a"/>
    <path d="M226 390 L 246 410 L 286 370" stroke="white" stroke-width="16" stroke-linecap="round" stroke-linejoin="round" fill="none"/>
  </g>
</svg>
